<?xml version="1.0" encoding="UTF-8"?>
<svg id="Layer_1" data-name="Layer 1" xmlns="http://www.w3.org/2000/svg" xmlns:xlink="http://www.w3.org/1999/xlink" viewBox="0 0 647 647">
  <defs>
    <style>
      .cls-1 {
        fill: #fff;
      }

      .cls-2 {
        fill: url(#radial-gradient);
      }

      .cls-3 {
        opacity: .7;
      }
    </style>
    <radialGradient id="radial-gradient" cx="323.5" cy="323.5" fx="323.5" fy="323.5" r="323.5" gradientUnits="userSpaceOnUse">
      <stop offset=".13" stop-color="#f68724"/>
      <stop offset=".17" stop-color="#ed7b23"/>
      <stop offset=".41" stop-color="#c34821"/>
      <stop offset=".59" stop-color="#a92820"/>
      <stop offset=".69" stop-color="#a01d20"/>
    </radialGradient>
  </defs>
  <rect class="cls-2" width="647" height="647" rx="72.1" ry="72.1"/>
  <g class="cls-3">
    <polygon class="cls-1" points="226.02 555.8 205.03 520.15 185.73 520.15 216.15 571.73 216.15 600.39 234.33 600.39 234.33 571.96 264.86 520.15 247.01 520.15 226.02 555.8"/>
    <path class="cls-1" d="M380.04,520.15l-35.52,80.25h18.9l7.06-17.2h37l7.06,17.2h19.35l-35.63-80.25h-18.21ZM376.4,569.1l12.64-30.72,12.64,30.72h-25.27Z"/>
    <path class="cls-1" d="M339.26,549.27c0-18-12.93-29.12-33.6-29.12h-33.49v80.25h17.9v-22.36h16.47l14.92,22.36h19.23l-17.35-25.79c10.06-4.47,15.91-13.3,15.91-25.33ZM304.67,563.25h-14.59v-27.97h14.59c10.94,0,16.47,5.16,16.47,13.99s-5.53,13.98-16.47,13.98Z"/>
    <path class="cls-1" d="M485.54,555.17s0,.02,0,.04c0,.02,0,.04,0,.06-.01.14-.03.28-.06.41,0,.05-.02.09-.03.14,0,.02-.02.05-.02.07,0,.01,0,.02-.01.03-.07.3-.2.59-.34.87,0,0,0,0,0,.01,0,.01,0,.03-.01.04-.16.23-.29.48-.44.72-.09.14-.2.28-.31.41-.04.05-.09.1-.13.14-.09.09-.18.18-.26.28-.02.02-.04.02-.06.03-.03.04-.08.08-.12.12-.11.13-.23.26-.35.4-.27.32-.59.61-.9.9-.3.29-.61.57-.92.85-.02.02-.04.04-.06.06,0,0-.01.01-.02.02-.02.02-.04.04-.07.06-.02.02-.04.04-.05.06-.02.03-.05.05-.08.08-.03.03-.06.06-.09.09-.21.21-.42.43-.63.64-.06.08-.15.14-.23.21,0,0,0,0,0,0-.05.07-.12.12-.19.18-.02.02-.04.04-.06.06-.13.17-.26.34-.41.49-.38.37-.78.71-1.15,1.1-.05.07-.12.12-.19.18-.06.07-.13.14-.2.2,0,0,0,0,0,0-.05.08-.11.14-.18.21-.07.09-.13.19-.21.27-.09.09-.19.17-.3.25-.02.01-.04.03-.06.04-.04.05-.09.08-.14.13-.02.02-.04.04-.06.06-.02.02-.04.05-.06.07-.04.06-.08.11-.12.17-.08.09-.18.15-.28.22-.04.06-.1.11-.15.17-.02.02-.03.04-.05.06-.06.07-.07.1-.12.15-.07.07-.15.13-.24.19-.06.08-.1.16-.18.23-.13.12-.26.25-.39.37-.27.25-.53.5-.79.76-.21.21-.43.41-.65.6-.11.1-.22.18-.33.25l23.28,32.08h21.44l-33.02-45.23Z"/>
    <path class="cls-1" d="M459.98,520.15h-21.09l29.54,40.7c.06-.08.11-.16.18-.23.11-.12.25-.23.38-.34.32-.26.59-.55.87-.85.16-.17.31-.33.48-.48.16-.15.3-.32.47-.47.04-.04.09-.06.14-.08.07-.1.17-.17.27-.24.05-.09.09-.18.16-.25.29-.29.56-.59.85-.87.16-.16.34-.3.52-.43.03-.04.07-.07.1-.1.02-.03.05-.05.07-.08,0-.02.02-.03.03-.05.11-.11.19-.25.31-.36.07-.06.15-.11.22-.16.04-.05.09-.08.14-.12.05-.06.1-.12.16-.17.05-.07.15-.2.18-.23.05-.05.1-.08.15-.12.01-.01.05-.03.07-.05.02-.03.06-.05.09-.08.05-.06.11-.11.17-.16.03-.03.06-.07.09-.1,0,0,0,0,0-.01,0,0,0,0,0,0,.35-.44.71-.87,1.12-1.26.24-.23.52-.43.79-.63.06-.07.14-.12.21-.18.01,0,.02-.02.03-.03.07-.12.17-.23.28-.32.04-.08.08-.16.14-.22.44-.44.92-.83,1.43-1.17.28-.18.58-.34.9-.44.04-.01.08,0,.12-.02,0,0,0,0,.01,0,.08-.04.17-.04.25-.07.1-.05.22-.07.33-.09.03,0,.06-.03.1-.03,0,0,.01,0,.02,0,.06,0,.1-.03.16-.03.02,0,.03,0,.05,0,.15-.06.3-.1.49-.1.07,0,.12.03.18.04,0,0,.02,0,.03,0,.04,0,.06.02.1.02.04-.01.08-.03.12-.03.12,0,.23.04.35.08.01,0,.02,0,.03,0,.03,0,.06.02.09.03.01,0,.03,0,.05.01,0,0,0,0,.01,0,.05.01.11.03.16.05l-22.11-30.28Z"/>
    <path class="cls-1" d="M150.18,520.15h-34.74v80.25h18.57v-22.13h16.16c21.44,0,34.85-11.12,34.85-29s-13.41-29.12-34.85-29.12ZM149.14,563.14h-15.13v-27.86h15.13c11.35,0,17.08,5.16,17.08,13.99s-5.73,13.87-17.08,13.87Z"/>
    <path class="cls-1" d="M490.88,544.94c-4.09-4.09-10.72-4.09-14.81,0l-14.6,14.6c-4.09,4.09-4.09,10.72,0,14.81,4.09,4.09,10.72,4.09,14.81,0l14.6-14.6c4.09-4.09,4.09-10.72,0-14.81ZM485.55,555.26s0,.03,0,.04c-.07.67-.34,1.3-.7,1.9-.07.12-.14.24-.22.36-.09.14-.2.28-.31.4-.03.03-.04.07-.07.09l-.27.27s-.04.04-.05.06c0,0,0,0,0,0l-.07.07s-.02.01-.02.02l-.18.18c-.08.08-.16.18-.23.27-.27.32-.59.61-.9.9-.17.16-.34.32-.52.48l-1.42,1.42s-.06.05-.08.08l-.04.04c-.04.05-.09.09-.14.14,0,0-.02.01-.02.02l-.41.41c-.06.07-.11.15-.18.21-.29.28-.58.56-.87.83l-.29.29s-.06.05-.08.08l-.07.07c-.06.08-.13.14-.2.2l-.02.02s-.03.03-.05.05c0,0,0,0,0,0-.04.05-.09.1-.14.14h-.01c-.07.1-.13.2-.21.28-.09.09-.19.17-.3.25-.02.01-.03.03-.05.04h0s-.06.06-.08.09c-.02.02-.04.04-.06.06l-.02.02s-.06.05-.08.08l-.04.04s-.07.1-.11.15c-.06.07-.13.11-.2.16l-.09.09c-.04.05-.09.09-.13.13-.02.02-.03.04-.05.06-.06.07-.07.1-.12.15-.06.06-.14.11-.21.16l-.06.06c-.05.06-.09.13-.15.19-.13.12-.26.25-.39.37-.13.12-.26.25-.38.37l-.64.64c-.09.09-.2.16-.3.25-.04.03-.07.07-.11.1-.06.05-.11.08-.17.13-.06.04-.12.09-.18.13-.07.05-.16.09-.24.13-1.75.99-4,.75-5.49-.74-1.79-1.79-1.79-4.7,0-6.49l.16-.16s0-.01,0-.02c.09-.16.21-.3.33-.43.11-.12.25-.23.38-.34.32-.26.59-.55.87-.85.16-.17.31-.33.48-.48.16-.15.3-.32.47-.47.04-.03.08-.04.12-.07l.04-.04s.07-.07.11-.11l.22-.22s.05-.1.09-.14c.29-.29.56-.59.85-.87.12-.12.26-.22.4-.33l.14-.14s0,0,0,0l.04-.04s.04-.04.06-.06l.07-.07s0,0,0-.01c.11-.11.19-.25.31-.36.05-.05.12-.08.18-.13l.06-.06s.04-.04.06-.06l.1-.1s.04-.04.06-.06l.1-.1c.06-.07.12-.15.14-.18.05-.05.1-.08.15-.12,0,0,.01-.01.02-.02l.18-.18s0,0,0,0l.07-.07s.04-.04.06-.06l.23-.23c.31-.39.63-.77.99-1.12.26-.25.54-.49.84-.71l.29-.29s.03-.03.05-.05l.2-.2s.05-.09.08-.12c.07-.07.16-.12.23-.19l.4-.4c.75-.75,1.7-1.14,2.68-1.25,0,0,0,0,0,0,0,0,0,0,0,0,.07,0,.13-.01.2-.02.11-.03.21-.07.34-.07.07,0,.11.03.17.04,0,0,.01,0,.02,0,0,0,0,0,.02,0,0,0,0,0,.01,0,.06,0,.12,0,.18,0,0,0,.02,0,.03,0,.02,0,.04.01.07.02.08,0,.16.05.24.06.02,0,.05,0,.07,0,.16,0,.31.06.45.14.74.2,1.44.52,2.02,1.1,1,1,1.42,2.35,1.3,3.65,0,.01,0,.02,0,.04Z"/>
    <path class="cls-1" d="M467.45,582.75l-8.48,8.48c-3.32,3.32-8.69,3.32-12.01,0-3.32-3.32-3.32-8.69,0-12.01l5.29-5.29v-9.33l-11.26,11.26c-5.89,5.89-5.89,15.44,0,21.33h0c5.89,5.89,15.44,5.89,21.33,0l14.45-14.45h-9.33Z"/>
    <path class="cls-1" d="M511.32,523.71h0c-5.89-5.89-15.44-5.89-21.33,0l-12.66,12.66h9.33l6.69-6.69c3.32-3.32,8.69-3.32,12.01,0,3.32,3.32,3.32,8.69,0,12.01l-4.69,4.69v9.33l10.66-10.66c5.89-5.89,5.89-15.44,0-21.33Z"/>
    <path class="cls-1" d="M268.63,445.72h99.37l16.9,31.75h-132.94l16.67-31.75ZM363.97,438.14l-16.9-31.75h-24.76v31.75h41.66ZM272.61,438.14h41.58v-31.75h-24.91l-16.67,31.75ZM343.23,399.17l-25.25-47.45-24.91,47.45h50.16ZM258.99,445.72h-36l-21.2,31.75h39.97l17.23-31.75ZM263.1,438.14l46.94-86.52c-14.6,5.63-28.87,6.95-28.87,6.95l-53.12,79.56h35.05ZM413.84,445.72h-35.22l17.38,31.75h38.16l-20.32-31.75ZM374.48,438.14h34.51l-68.11-106.45s-4.94,6.17-17.33,13.38l50.93,93.07Z"/>
    <path class="cls-1" d="M195.67,97.39c33.84-27.26,76.25-43.78,122.49-43.78s87.13,15.9,120.41,42.31c-.31,5.87-1.23,13.69-3.59,22.24-31.25-28.01-71.85-45.25-116.82-45.25s-87.46,18.08-119.31,47.22c-1.17-6.44-2.46-14.68-3.18-22.73ZM509.41,202.31c-3.09,11.63-8.82,21.08-13.61,27.44,1.67,10.2,2.59,20.63,2.59,31.22,0,69.11-37.03,126.9-92.76,156.54,3.08,4.98,6.91,11.1,10.3,16.35,61.12-33.09,101.75-96.91,101.75-172.89,0-20.24-2.9-39.95-8.28-58.66ZM231.03,418.1c-56.62-29.31-94.74-86.98-94.74-156.4,0-10.08.84-20.03,2.39-29.77-6.63-11.83-10.54-22.47-12.79-30.58-5.78,19.23-8.89,39.52-8.89,60.35,0,75.86,41.25,139.28,102.7,172.19,3.54-4.94,7.98-11.13,11.34-15.79Z"/>
    <path class="cls-1" d="M295.07,189.74c3.81-5.99,7.21-10.32,7.21-10.32,0,0-15.52,3.79-28.33-1.8,4.1,6.45,12.85,11.23,21.12,12.12Z"/>
    <path class="cls-1" d="M363.08,182.67c-2.1-2.58-4.66-4.9-7.47-6.97-8.38-1.59-21.49-.1-33.84,6.43-15.7,8.3-23.09,31.75-8.3,47.81,14.79,16.06,33.2,18.76,31.03,46.19-1.98,25.07-20.38,50.71-36.34,68.44,22.1-7.08,41.76-23.44,49.33-43,8.66-22.37,4.51-49.25-5.95-60.44-10.46-11.19-25.26-22.91-24.72-35.54.54-12.63,19.3-26.52,36.26-22.91Z"/>
    <path class="cls-1" d="M326.81,205.58c.54-12.63,19.3-26.52,36.26-22.91-12.63-15.52-40.41-22.19-55.75-15.52-15.34,6.68-29.77,1.8-34.82-9.56,3.97,22.91,29.77,21.83,29.77,21.83,0,0-13.35,16.96-16.78,30.31-3.43,13.35-6.49,26.7-1.8,44.74,4.69,18.04,9.56,30.85,9.56,48.53s-9.74,29.95-22.91,39.15c-13.17,9.2-25.62,27.6-26.7,32.47,13.17-18.76,30.13-22.91,54.85-27.6,25.86-4.91,50.34-23.09,59-45.46,8.66-22.37,4.51-49.25-5.95-60.44-10.46-11.19-25.26-22.91-24.72-35.54ZM320.14,175.18c0-2.14,1.98-3.88,4.42-3.88s4.42,1.74,4.42,3.88-1.98,3.88-4.42,3.88-4.42-1.74-4.42-3.88Z"/>
    <path class="cls-1" d="M315.72,232.26c2.47,3.81,5.67,8.07,9.47,11.57,9.2,8.48,14.25,19.12,11.73,42.22-2.22,20.27-22.64,45.96-33.46,59.87,1.57-.4,3.14-.85,4.69-1.35h0c15.96-17.73,34.36-43.37,36.34-68.44,2.06-26.04-14.44-29.8-28.77-43.87Z"/>
    <path class="cls-1" d="M355.68,232.29s10.82,8.12,14.97,27.78c4.15,19.67-4.51,42.94-6.31,46.01,14.07,1.26,55.57-2.53,72.35-23.45-14.61,8.3-40.95,2.16-48.53-3.25,26.34,5.77,50.88-3.97,70.9-16.78,20.03-12.81,37.71-46.19,39.33-68.92-13.53,25.98-50.52,49.97-94.54,54.3,38.07-8.84,75.95-34.1,89.85-68.02,13.89-33.92,5.41-68.56-5.41-81.37,5.41,27.6-7.4,52.86-22.91,73.61-15.52,20.75-43.12,36.99-55.39,44.2,27.96-22.91,57.73-48.35,60.8-91.83,3.07-43.48-19.67-68.56-28.87-79.2,10.28,20.03,9.56,37.89,5.23,62.96-4.33,25.08-22.55,57.91-38.25,77.76-15.7,19.85-53.22,46.19-53.22,46.19Z"/>
    <path class="cls-1" d="M197.27,283.34c18.58,14.07,36.62,23.63,63.51,23.09,13.07-.26,24.27-3.38,32.37-6.52-.53-16.1-5.05-28.48-9.46-45.44-2.37-9.1-2.76-17.01-2.12-24.33-14.74-7.39-48.43-27.29-70.58-63.9-29.05-47.99-29.77-97.6-18.58-120.7-15.88,19.85-35.18,44.56-30.13,81.19,5.05,36.62,41.13,73.43,66.75,92.55-25.62-13.17-52.32-37.89-68.56-62.06-16.24-24.18-14.25-54.67-14.07-59.36-6.13,6.13-16.6,22.55-13.35,57.37,3.25,34.82,24.54,63.87,101.39,94.18-42.4-6.13-89.31-28.33-100.85-60.26,5.23,32.11,26.88,62.24,50.7,77.22,23.81,14.97,53.94,15.7,60.8,13.71-8.3,5.95-40.59,6.13-47.81,3.25Z"/>
    <path class="cls-1" d="M409.08,217.67c-17.19,8.88-33.69,29.24-39.76,37.25.49,1.63.94,3.32,1.33,5.15,4.15,19.67-4.51,42.94-6.31,46.01,1.22.11,2.67.18,4.27.2,6.39-23.01,20.03-60.39,40.47-88.61Z"/>
    <path class="cls-1" d="M293.15,299.92c-.43-12.84-3.39-23.35-6.81-35.67-3.69-5.69-9.46-12.76-18.17-19.15-18.4-13.53-39.51-22.73-39.51-22.73,0,0,27.42,25.44,36.08,43.48,7.35,15.32,5.06,30.11-2.42,40.52,12.4-.47,23.05-3.44,30.83-6.45Z"/>
  </g>
</svg>